<svg height="48" viewBox="0 0 169 48" width="169" xmlns="http://www.w3.org/2000/svg" xmlns:xlink="http://www.w3.org/1999/xlink"><mask id="a" fill="#fff"><path d="m.29.133h19.654v32.46h-19.654z" fill="#fff" fill-rule="evenodd"/></mask><mask id="b" fill="#fff"><path d="m0 .166h19.658v32.427h-19.658z" fill="#fff" fill-rule="evenodd"/></mask><mask id="c" fill="#fff"><path d="m.274.291h37.63v21.991h-37.63z" fill="#fff" fill-rule="evenodd"/></mask><mask id="d" fill="#fff"><path d="m.09.251h113.334v27.361h-113.334z" fill="#fff" fill-rule="evenodd"/></mask><g fill="none" fill-rule="evenodd"><path d="m17.793 23.096s-3.45 2.442-7.676 4.983-7.677 4.25-7.677 4.25c-1.018.612-1.843.123-1.843-1.091 0 0-.307-4.303-.307-8.974 0-4.672.307-9.343.307-9.343 0-1.215.825-2.696 1.843-3.308 0 0 3.304-2.353 7.677-4.982 4.372-2.631 7.676-4.251 7.676-4.251 1.018-.612 1.743-.031 1.843 1.09.1 1.123.308 3.02.308 8.974s-.308 9.344-.308 9.344c0 1.214-.825 2.695-1.843 3.307" fill="#2b5fce" mask="url(#a)" transform="translate(21.333 15.116)"/><path d="m38.745 30.36-2.771-2.33c-.374-.315-.856-.213-1.07.226l-1.682 3.435.002.006-3.167-2.664c-.374-.314-.856-.212-1.07.227l-5.121 10.465c-.215.439-.048.592.37.34l9.95-5.983 4.478-2.692c.418-.252.455-.716.081-1.03" fill="#fff"/><path d="m33.815 26.236c0 .487-.331 1.081-.74 1.327-.409.245-.74.05-.74-.438 0-.487.331-1.081.74-1.327s.74-.05.74.438" fill="#b99bf9"/><path d="m.312 19.789s-.308-3.39-.308-9.344c-.041-5.493.226-7.935.308-8.973.082-1.037.777-1.658 1.843-1.09 0 0 3.304 1.62 7.676 4.249 4.373 2.629 7.676 4.982 7.676 4.982 1.018.612 1.844 2.093 1.844 3.308 0 0 .307 4.671.307 9.343 0 4.671-.307 8.974-.307 8.974 0 1.214-.826 1.703-1.844 1.09 0 0-3.45-1.708-7.676-4.25a138.294 138.294 0 0 1 -7.676-4.982c-1.018-.612-1.843-2.093-1.843-3.306" fill="#2b5fce" mask="url(#b)" transform="translate(0 15.116)"/><path d="m8.227 23.057-5.2-3.167c-.232-.148-.42-.06-.42.196v14.24c0 .257.188.585.42.732l5.2 3.168c.233.148.421.06.421-.196v-14.24c0-.257-.188-.585-.42-.733m7.716 5.055-5.595-3.561c-.232-.148-.42-.06-.42.196v5.775c0 .256.188.583.42.73l5.595 3.562c.232.148.42.06.42-.196v-5.775c0-.256-.188-.583-.42-.73" fill="#fff"/><path d="m15.943 43.28-5.594-3.56c-.232-.148-.42-.476-.42-.732v-5.774c0-.256.188-.344.42-.197l5.594 3.561c.233.148.42.476.42.732v5.774c0 .256-.187.344-.42.196" fill="#b99bf9"/><path d="m37.151 12.417s-3.285 2.3-7.703 4.886a143.158 143.158 0 0 1 -8.35 4.511c-1.064.623-2.795.625-3.866.003 0 0-4.278-2.107-8.397-4.497s-7.754-4.873-7.754-4.873c-1.071-.622-1.076-1.63-.012-2.254 0 0 3.132-2.21 7.703-4.886a136.599 136.599 0 0 1 8.35-4.511c1.064-.623 2.463-.72 3.867-.004 1.403.717 3.147 1.452 8.396 4.498 5.25 3.046 6.799 4.206 7.754 4.873.956.668 1.077 1.63.012 2.254" fill="#2b5fce" mask="url(#c)" transform="translate(1.481 .005)"/><path d="m13.876 9.518c-.659-.382-.547-.76.25-.837l8.274-.815c.796-.078 1.27.49 1.051 1.261l-1.045 3.707c-.217.772-.934 1.091-1.593.71z" fill="#fff"/><path d="m34.694 11.056-14.45 8.46-.969-.563 14.45-8.459z" fill="#b99bf9"/><path d="m23.756 16.895c.625.362.628.95.007 1.313-.62.364-1.63.365-2.254.002-.625-.362-.628-.95-.007-1.314.62-.363 1.63-.364 2.254-.001" fill="#fff"/><path d="m101.74 26.553v-16.961c0-.452.243-.712.711-.712h3.976c.452 0 .712.26.712.712v1.597c0 .642.347.781.781.26a7.857 7.857 0 0 1 4.723-2.656c.503-.087.78.191.78.66v3.94c0 .417-.242.712-.711.712-3.472.174-5.295 1.598-5.295 4.81v7.638c0 .47-.243.712-.712.712h-4.254c-.468 0-.711-.243-.711-.712zm-9.18-10.85c.503 0 .78-.278.607-.782-.556-1.527-1.945-2.413-3.75-2.413-1.806 0-3.23.868-3.906 2.379-.209.503.104.816.607.816h6.441zm-13.023 2.377c0-5.347 4.028-9.583 9.827-9.583 5.278 0 9.357 3.594 9.41 9.323l-.018.503c-.035.417-.295.677-.729.677h-12.134c-.452 0-.782.278-.643.781.434 2.188 2.188 3.403 4.306 3.403 1.51 0 2.882-.59 3.767-1.788.278-.364.573-.503.955-.312l3.177 1.337c.434.173.59.486.4.833-1.511 2.69-4.462 4.357-8.3 4.357-6.076 0-10.017-4.2-10.017-9.53zm-30.673 8.472v-16.96c0-.452.243-.712.712-.712h4.253c.469 0 .712.26.712.712v.677c0 .642.347.746.798.278 1.181-1.25 2.726-2.014 4.584-2.014 2.17 0 3.854.711 4.86 2.274.261.434.54.469.869.07 1.267-1.459 3.004-2.344 5.121-2.344 3.699 0 6.13 2.1 6.13 6.076v11.944c0 .47-.261.712-.713.712h-4.253c-.469 0-.712-.243-.712-.712v-10.538c0-1.823-1.06-2.916-2.674-2.916-1.857 0-2.812 1.388-2.812 3.246v10.208c0 .47-.26.712-.712.712h-4.287c-.469 0-.712-.243-.712-.712v-10.538c0-1.823-1.024-2.916-2.656-2.916-1.858 0-2.83 1.388-2.83 3.246v10.208c0 .47-.243.712-.712.712h-4.253c-.47 0-.712-.243-.712-.712zm-8.382-8.489c0-2.83-2.153-4.792-4.81-4.792-2.673 0-4.791 1.892-4.791 4.792 0 2.916 2.118 4.774 4.792 4.774 2.656 0 4.809-1.91 4.809-4.774zm-14.983 0c0-5.608 4.358-9.531 10.191-9.531 5.816 0 10.208 3.923 10.208 9.531 0 5.625-4.392 9.548-10.208 9.548-5.833 0-10.19-3.923-10.19-9.548zm-16.106 7.588c-.382-.226-.452-.556-.226-.973l1.528-2.708c.208-.417.572-.486.954-.19 1.546.954 3.542 1.7 5 1.7 1.164 0 1.945-.468 1.945-1.371 0-1.233-1.65-1.597-3.594-2.274-2.396-.816-5.312-1.858-5.312-5.556 0-3.941 3.28-5.746 7.066-5.746 2.083 0 4.27.52 6.145 1.562.417.226.487.556.226.972l-1.527 2.396c-.244.382-.573.452-.955.226-1.25-.643-2.848-1.163-3.959-1.163-1.024 0-1.718.416-1.718 1.163 0 1.111 1.753 1.424 3.802 2.083 2.465.834 5.26 1.98 5.26 5.834 0 4.062-3.142 6.006-7.292 6.006-2.586 0-5.295-.763-7.343-1.961zm-8.99.902v-16.961c0-.452.243-.712.712-.712h4.219c.468 0 .711.26.711.712v16.961c0 .47-.243.712-.711.712h-4.22c-.468 0-.711-.243-.711-.712zm-.313-23.177c0-1.736 1.424-3.125 3.177-3.125a3.134 3.134 0 0 1 0 6.268c-1.753 0-3.176-1.39-3.176-3.143z" fill="#0b1528" mask="url(#d)" transform="translate(55.111 9.487)"/></g></svg>